<svg width="1273" height="1079" viewBox="0 0 1273 1079" fill="none" xmlns="http://www.w3.org/2000/svg">
<path fill-rule="evenodd" clip-rule="evenodd" d="M1098.13 676.539C1116.39 678.465 1122.25 710.685 1113.16 710.685C1108.78 710.685 1104.56 704.173 1103.41 701.482L1098.13 676.539V676.539ZM1020.39 654V640.395C1020.39 624.508 1089.3 648.927 1089.3 692.546C1066.52 690.923 1070.56 683.476 1030.99 683.476C1025.77 676.807 1020.39 664.83 1020.39 654V654ZM1065.45 599.582L1086.65 615.454H1097.25C1101.38 617.817 1105.2 618.46 1105.2 624.524V631.326C1072.34 624.774 1077.44 622.542 1065.45 599.582V599.582ZM1105.2 495.283C1097.72 494.75 1094.6 495.336 1094.6 488.481L1094.71 481.955L1105.2 479.41C1106.03 482.07 1107.86 485.591 1107.86 486.213C1107.86 486.547 1105.22 495.254 1105.2 495.283V495.283ZM837.51 474.875H850.762C857.613 474.875 865.125 485.813 866.665 490.748H853.413C848.68 490.748 839.593 483.678 829.559 481.678C831.136 476.625 830.178 474.875 837.51 474.875V474.875ZM956.779 513.422C956.779 492.255 1015.09 437.63 1015.09 459.004C1015.09 485.893 990.62 513.422 956.779 513.422ZM1047 427.537C1047.25 413.626 1050.89 412.111 1060.15 420.458C1061.58 415.18 1072.15 400.051 1076.05 400.051C1085.49 400.051 1091.95 415.435 1091.95 422.725V438.598C1077.35 438.319 1078.4 434.063 1070.75 434.063C1064.81 434.063 1064.93 435.857 1060.15 438.598C1058.33 435.831 1057.5 436.172 1057.5 431.795L1057.39 424.716L1047 427.537V427.537ZM1026.12 368.395L1030.99 368.307C1032.21 380.841 1038.94 375.898 1038.94 388.715V404.586C1038.94 413.255 1039.76 405.412 1035.63 412.219L1016.82 402.134L1026.12 368.395V368.395ZM1081.35 372.843C1089.92 372.843 1094.6 381.073 1094.6 388.715C1094.6 399.051 1086.39 393.249 1073.4 393.249C1073.55 387.4 1075.4 372.843 1081.35 372.843V372.843ZM1086.65 359.238C1091.5 341.441 1090.46 328.024 1116.43 333.589C1130.4 336.584 1142.31 354.196 1142.31 368.307C1142.31 383.653 1139.44 415.923 1123.76 415.923C1112.62 415.923 1107.64 397.362 1105.21 388.712C1098.66 365.498 1095.49 373.532 1086.65 359.238V359.238ZM1036.29 345.633C1045.61 346.297 1060.15 353.633 1060.15 361.505V368.307C1060.15 374.122 1059.51 373.788 1057.5 377.378C1058.07 378.301 1062.8 386.185 1062.8 386.447C1062.8 394.958 1056.14 397.067 1049.54 400.051C1043.47 377.737 1034.03 368.867 1036.29 345.633V345.633ZM1052.19 332.029V327.495C1052.19 321.431 1056.02 320.788 1058.6 318.129L1068.1 286.681C1080.51 289.155 1084 294.262 1084 307.087V343.366C1084 352.939 1077.43 345.082 1076.05 359.238H1068.1C1066.75 345.386 1052.19 338.074 1052.19 332.029ZM1107.85 304.82C1107.85 296.151 1107.04 303.995 1110.61 297.74L1121.11 300.285C1120.87 309.333 1119.88 308.681 1115.81 313.89C1111.68 311.526 1107.85 310.884 1107.85 304.82V304.82ZM1071.12 282.742L1073.4 261.74H1084C1087 271.365 1089.3 265.707 1089.3 273.077V282.146H1084L1083.63 277.015L1071.12 282.742V282.742ZM866.13 261.623L879.923 259.472C882.999 264.956 885.223 269.392 885.223 277.611V279.879C885.223 292.938 874.677 282.146 864.021 282.146H853.419V286.681C858.845 287.067 882.573 293.712 882.573 298.018C882.573 322.172 858.937 318.425 840.359 318.076L826.915 313.89C820.941 333.03 796.491 313.599 824.264 311.623V302.552C824.264 296.236 839.195 279.971 842.818 275.344C842.818 265.25 844.365 243.6 853.419 243.6C860.578 243.6 860.727 244.683 866.274 245.981L869.417 250.423L866.13 261.623V261.623ZM816.314 225.461C816.314 218.296 826.43 201.566 832.215 198.252C839.362 202.731 842.818 210.407 842.818 220.926V229.996H824.264C819.926 229.996 816.314 228.638 816.314 225.461ZM805.711 234.53L840.167 239.065C840.167 254.199 831.027 270.87 826.397 283.97C821.075 299.028 805.192 303.106 800.411 318.425C782.558 318.085 782.115 308.774 772.825 302.213L763.304 268.542C756.571 267.199 750.053 266.647 750.053 259.472V248.135C750.053 240.393 760.757 236.095 768.606 234.53V229.996H755.353C757.524 223.039 777.037 214 785.361 210.318C796.569 205.359 810.84 191.449 816.314 191.449C838.181 191.449 806.091 219.957 805.711 234.53V234.53ZM834.866 186.915H824.264C824.839 181.014 831.848 168.776 837.516 168.776C841.231 168.776 842.818 171.867 842.818 175.578V180.113C842.818 185.337 840.973 186.915 834.866 186.915ZM657.291 175.578L662.018 183.863L652.01 189.21L652.335 186.887L617.534 182.38C621.089 170.995 634.766 165.322 643.301 156.788C661.485 138.603 657.291 156.561 657.291 175.578ZM976.945 147.236C978.048 146.066 982.941 143.835 983.298 143.835C995.859 143.835 1015.5 160.852 1019.77 162.083L1022.93 175.6L1021.34 177.421L976.945 147.236V147.236ZM665.249 141.567C665.249 135.088 680.511 125.695 686.453 125.695H689.103C698.042 125.695 707.587 147.014 701.505 149.797C701.123 149.973 665.249 151.561 665.249 141.567ZM832.225 150.637C832.225 169.44 817.708 181.203 800.42 184.647C800.017 200.115 757.389 220.926 744.762 220.926H736.81C732.261 206.351 720.142 220.769 710.305 184.647C713.068 181.118 713.82 177.845 720.908 177.845H744.762V173.31H736.81C729.652 173.31 729.502 172.228 723.558 171.043V164.241H715.606C714.558 167.598 702.614 180.967 699.817 182.479C687.81 188.965 682.442 184.925 667.898 184.647V180.113C681.677 177.367 699.78 158.185 712.956 150.637L713.486 139.753L718.489 135.657L749.917 130.164L755.41 121.432L779.217 118.893C788.522 113.562 798.158 112.09 813.672 112.09H818.974C824.452 112.09 845.478 119.669 845.478 127.962V132.497C845.478 141.57 841.003 148.631 832.225 150.637V150.637ZM889.087 101.644L917.039 100.754C922.981 100.754 922.857 102.548 927.64 105.288C1002.89 105.288 998.202 129.539 1031.01 137.032C1029.92 141.012 1028.12 148.369 1023.06 148.369C1008.01 148.369 985.814 135.175 962.735 131.95C945.304 129.514 917.904 120.748 903.818 114.343L911.739 130.229C897.668 131.231 893.357 137.032 882.583 137.032H877.282C869.134 137.032 866.681 130.39 866.681 123.427V121.16C866.681 115.036 867.947 114.908 869.502 109.234L899.333 113.837L889.087 101.644V101.644ZM575.14 109.823L580.441 107.556V114.358L585.742 91.6841H591.042V84.882C591.042 78.0549 596.769 75.0855 585.742 71.2768V59.94C585.742 49.3957 572.49 39.3537 572.49 32.7315C572.49 27.4438 579.561 21.3947 585.742 21.3947H596.343C605.551 21.3947 600.388 25.9294 609.595 25.9294H612.246C621.454 25.9294 616.291 21.3947 625.498 21.3947H630.799C631.035 21.3947 650.208 27.1193 655.185 27.7413C666.151 29.111 677.598 27.2493 688.548 28.6752C706.52 31.0154 730.967 39.5336 742.117 39.5336V32.7315C716.482 32.7315 715.694 25.2409 689.155 23.6215C653.586 21.4508 654.478 26.6107 649.352 8.40828L670.556 7.78942H678.507V12.3242H699.71L699.667 7.5908L681.264 10.5446L680.833 7.5159L709.862 5.77691L718.264 14.5915V7.78942H728.865C731.424 13.2145 752.957 28.7699 759.158 36.2917C764.088 42.2711 768.255 46.4678 772.469 52.1134C780.666 63.0945 772.4 67.6271 789.142 68.3697L773.787 36.8128L795.126 32.7315C802.612 37.0198 832.364 56.958 831.619 64.4674L832.231 87.1494C832.226 87.4271 825.302 96.8346 824.28 98.4862C806.612 98.4862 788.939 98.5164 771.271 98.4852C743.008 98.4352 736.974 105.288 723.564 105.288C716.818 105.288 711.346 97.5803 705.067 94.0753L697.06 96.2189V114.358C682.791 115.374 689.294 118.893 683.807 118.893C674.728 118.893 664.41 101.911 659.953 96.2189C660.643 89.1266 662.604 88.1635 662.604 80.3473C662.604 71.6772 663.418 79.5215 658.929 72.866L652.003 82.6147C643.382 80.8965 618.126 71.2768 617.546 71.2768H609.595V78.0789H617.546C626.692 78.0789 646.358 94.3738 646.227 106.447L630.799 112.09C616.051 112.09 615.276 109.187 612.352 119.458L633.393 116.749L640.642 118.86L640.8 131.915L612.246 155.171C640.553 148.705 647.893 122.858 665.254 118.893C664.907 132.227 646.439 140.871 636.802 148.971C633.06 152.115 606.945 176.196 606.945 177.845C606.945 190.576 641.481 195.985 657.303 195.985L662.601 195.946L688.602 195.837L683.807 211.857H707.661C714.426 211.857 731.515 231.775 731.515 234.53C731.515 260.062 703.917 255.3 679.534 260.351C663.3 263.715 634.871 278.867 633.449 293.483C647.147 293.222 679.329 273.077 686.458 273.077C696.207 273.077 692.611 279.879 702.361 279.879H707.661C720.697 279.879 710.678 272.263 726.214 270.809V277.611C726.214 292.444 739.466 289.988 739.466 304.82L738.748 317.976L694.41 370.576H702.361C707.403 370.576 720.914 379.157 720.914 384.18V400.051C703.244 404.088 689.922 424.992 681.157 424.992H678.507C672.134 424.992 670.715 421.319 665.159 418.17L667.904 406.853H662.604V411.388C649.205 410.434 644.059 404.586 638.75 404.586H630.799C632.125 418.218 647.034 421.378 657.303 427.261C673.314 427.261 675.488 424.436 675.856 438.598L681.157 440.865L689.483 440.524L715.612 459.004C712.329 446.946 691.758 436.144 691.758 434.063C691.758 426.948 716.11 409.121 720.914 409.121C727.764 409.121 735.276 420.058 736.923 424.506L755.694 427.215L759.271 442.326L779.223 468.073C783.826 468.401 790.687 468.242 790.278 472.674L787.174 490.748C796.302 488.663 794.187 486.213 797.776 486.213C805.909 486.213 809.173 489.338 811.027 495.283C829.098 494.939 819.297 490.748 829.581 490.748H832.231C833.155 490.748 848.865 497.125 857.164 498.949C881.31 504.261 871.988 502.772 871.988 490.748C871.988 482.513 882.589 482.328 882.589 472.608C882.589 465.912 855.635 467.421 847.574 467.249C827.703 466.823 832.335 465.285 814.234 460.796C797.948 456.756 768.622 440.809 768.622 422.725C768.622 397.591 785.716 403.7 787.174 388.715C755.556 395.016 767.094 418.19 755.369 418.19C746.833 418.19 736.816 403.466 736.816 395.517C736.816 388.661 739.936 389.247 747.418 388.715V381.912C735.142 381.039 729.883 378.78 728.865 368.307C733.387 367.274 739.466 365.674 739.466 361.505C739.466 350.825 729.198 356.381 720.914 356.97C722.305 342.672 741.34 324.943 752.719 318.425C772.496 333.131 787.272 336.564 816.329 336.564C828.803 336.564 842.871 330.128 856.085 327.495C858.659 328.968 879.939 340.007 879.939 341.099C879.939 351.262 854.24 370.094 845.484 375.11C829.026 375.11 817.036 371.153 813.678 381.912C820.785 383.367 818.674 384.18 824.28 384.18C850.667 384.18 874.7 371.671 879.939 352.435C887.421 352.968 890.541 352.383 890.541 359.238C890.541 366.528 883.477 364.365 882.522 377.319C881.849 386.442 883.475 392.583 878.885 399.15C875.211 404.407 856.275 420.91 850.784 424.992C870.795 423.568 881.005 405.525 892.006 394.502C903.156 383.331 897.07 382.595 898.404 365.965C899.324 354.497 909.093 348.458 909.093 341.099C909.093 332.302 904.195 340.686 904.333 326.814L944.54 316.8L943.036 312.288L900.69 320.627L903.793 302.552C898.176 300.813 893.191 297.321 893.191 291.216L894.961 288.83L890.541 250.402C890.272 247.475 896.288 244.862 898.492 243.6L879.72 246.189L856.085 234.53C860.444 218.527 853.132 201.862 872.702 199.55L864.037 195.985V189.182C864.037 174.618 887.34 154.759 898.734 149.577L938.249 143.835H956.801C961.605 143.835 1020.41 178.051 1020.41 186.915V195.985C997.195 188.795 985.331 159.706 946.2 159.706C949.598 170.594 962.2 168.222 975.01 173.606C983.868 177.328 994.892 185.379 1001.84 191.467C1011.26 199.725 1020.43 199.857 1026.56 211.129C1035.91 228.291 1043.82 219.595 1044.27 236.798L1041.55 235.722L1031.01 257.205C1015.74 254.16 1022.04 249.545 1012.53 239.003C1005.98 231.731 997.748 230.897 996.706 218.152L1021.1 222.144L1004.51 214.124C967.714 214.124 970.469 188.642 946.2 186.915L944.121 188.581L970.054 214.124H962.103V218.659L991.257 220.926C992.918 238.002 1020.41 252.698 1020.41 266.275V270.809C1020.41 286.029 973.379 300.601 964.753 311.623C979.768 310.554 1014.56 290.142 1017.76 279.879H1028.36C1029.75 284.964 1031.01 285.092 1031.01 291.216V313.89C1031.01 320.09 1014.45 331.347 1007.16 332.029L1007.35 336.141L1014.43 338.925L1017.76 354.703C1009.86 367.482 1007.07 359.476 1001.3 379.17C1000.08 383.337 986.229 399.661 981.89 403.375C973.681 410.405 967.368 416.938 959.707 422.943C951.298 429.535 939.575 433.127 932.947 440.865C958.559 439.042 953.158 420.458 979.601 419.82L1010.19 382.805L1014.91 384.528L1007.16 422.725C1018.41 420.155 1011.8 418.19 1020.41 418.19H1028.36V429.528C1028.36 439.954 1021.71 432.468 1016.38 439.681C1010.65 447.423 1019.97 448.833 1004.51 449.934V443.132C1004.51 435.315 1006.47 434.353 1007.16 427.261H1001.86C1001.42 444.021 947.063 511.154 938.249 511.154C932.044 511.154 927.646 507.392 927.646 502.085V497.55C927.646 484.705 928.594 475.419 940.899 472.608V461.271C929.844 462.306 919.696 483.245 919.696 490.748L919.727 506.768L890.541 511.154V515.689C894.518 516.503 898.492 516.187 898.492 520.224C898.492 528.461 895.348 528.177 893.191 536.095L905.281 535.235L914.395 524.759C926.046 525.589 926.361 526.401 923.439 532.253L939.851 540.586L938.249 542.899C952.458 542.627 955.678 540.844 956.801 529.293L969.656 529.407L972.704 533.828C993.43 545.702 993.907 527.502 993.851 558.894L1002.93 561.327L996.558 572.374V565.572C992.091 568.228 991.257 565.897 991.257 572.374L989.87 586.972L951.5 617.723L956.801 619.99L992.376 595.68L992.28 598.161L1007.16 619.99H996.558V638.129C996.558 649.932 990.731 668.955 986.101 676.628L991.447 684.179L1001.86 649.466L1006.09 649.873L1025.71 685.745C1050.42 685.745 1089.32 690.047 1089.32 708.418V715.22C1089.32 726.077 1079.74 731.954 1078.72 742.43C1091.78 739.446 1093.74 712.953 1102.57 712.953C1108.34 712.953 1116.68 719.444 1116.42 724.366L1112.86 744.657L1110.46 743.326L1097.24 762.264L1084.58 764.089L1097.27 769.638V778.709L1102.24 774.195L1105.22 787.778C1105.22 776.972 1105.17 769.673 1109.58 762.031C1110.75 760.011 1122.61 742.43 1123.78 742.43C1137.37 742.43 1116.99 778.958 1115.83 783.244L1118.48 787.778C1135.55 770.975 1130.62 761.439 1137.03 737.895C1120.46 716.73 1125.49 678.444 1109.5 666.216C1088.95 650.497 1065.1 641.431 1044.27 624.525C1038.32 625.71 1038.17 626.792 1031.01 626.792H1025.71C1009.22 626.792 1015.11 609.028 1013.57 596.686L1006.92 608.557L1004.37 609.376L996.558 583.711C1007.1 566.665 1017.76 574.431 1017.76 542.899C1028.15 536.948 1030.62 537.545 1029.69 521.358L1021.74 528.16L1021.4 530.526L1012.46 520.224C1016.12 515.552 1020.41 514.338 1020.41 508.887C1020.41 496.949 1014.71 486.007 1034.2 481.723L1031.01 513.422C1047.15 509.735 1036.88 490.748 1049.57 490.748C1055.67 490.748 1057.52 492.326 1057.52 497.55V504.352C1048.6 506.388 1041.62 523.552 1041.62 529.293C1041.62 534.377 1043.71 534.271 1046.92 538.363C1046.92 554.467 1051.7 580.011 1055.42 594.576C1062.38 621.799 1076.51 621.456 1084.18 632.682L1117.15 636.995L1126.43 631.327V626.792C1118.95 626.26 1115.83 626.845 1115.83 619.99V606.386H1126.43C1126.3 601.386 1127.24 595.048 1121.13 595.048C1104.01 595.048 1113.3 610.921 1099.92 610.921C1078.51 610.921 1062.82 577.729 1062.82 561.038V547.433C1062.82 542.208 1064.66 540.63 1070.77 540.63H1078.72V522.491C1078.72 516.764 1089.7 511.154 1094.62 511.154C1100.57 511.154 1100.44 512.949 1105.22 515.689C1112.04 511.784 1121.79 508.242 1127.91 503.356C1139.41 494.177 1128.6 489.954 1144.98 486.213V490.748C1158.38 489.793 1163.53 483.945 1168.84 483.945H1176.79V479.41H1190.04V470.341C1190.04 462.524 1192 461.561 1191.78 455.479L1182.09 447.667C1179.95 448.936 1175.54 452.202 1174.14 452.202C1168.03 452.202 1166.19 450.624 1166.19 445.4V438.598H1174.14V429.528C1163.61 428.778 1167.75 427.261 1160.88 427.261C1153.06 427.261 1137.03 433.122 1137.03 424.992C1137.03 408.067 1150.28 399.633 1150.28 381.912V377.378C1150.28 349.013 1125.27 331.511 1123.78 316.158H1131.73C1138.1 316.158 1139.52 312.483 1146.19 308.192L1132.67 299.994L1125.56 283.434L1113.31 290.609L1099.85 288.933L1105.22 268.542C1093.13 263.066 1073.42 247.484 1073.42 234.53C1073.42 225.654 1077.42 234.281 1078.72 220.926L1068.7 221.055L1065.47 229.996C1060.05 228.917 1049.57 225.678 1049.57 220.926C1049.57 217.215 1051.15 214.124 1054.87 214.124C1061.23 214.124 1070.77 218.986 1070.77 211.857C1070.77 199.534 1069.06 197.745 1060.17 193.717C1060.17 177.663 1053.29 162.977 1038.26 159.623L1041.62 139.3C1015.16 105.507 937.279 93.9515 869.334 93.9515C862.195 84.8311 854.473 62.7814 846.032 57.1993C832.59 48.3098 824.189 39.4234 809.97 31.3659C798.154 24.6699 780.646 16.0008 767.777 10.7755C743.657 0.982137 741.656 0.987326 715.608 0.987326H705.007C672.174 0.987326 651.617 -1.20617 612.193 0.945746C604.616 1.35866 549.376 24.2601 540.817 27.5894L527.429 25.9294L528.342 29.4542L537.93 37.2548L535.38 57.6726L540.586 57.6528L543.331 46.3357H551.283V57.6726H561.884C575.2 57.6726 577.787 81.5174 577.787 93.9515C577.787 101.769 575.827 102.731 575.137 109.823H575.14ZM453.224 760.568C454.613 749.707 471.253 746.964 485.029 746.964C483.143 753.008 465.326 760.568 461.175 760.568H453.224V760.568ZM540.688 685.744C541.346 678.981 542.593 674.407 551.29 674.407C551.647 674.407 556.54 676.638 556.591 676.674C551.444 683.25 551.11 683.667 540.688 685.744ZM705.011 490.75C705.011 485.443 709.409 481.68 715.612 481.68H726.214L732.28 499.603L705.1 502.661L705.011 490.75V490.75ZM299.497 898.887V905.689L304.797 907.956C318.409 904.847 338.571 891.434 359.378 886.626C371.374 883.854 381.903 885.035 391.308 879.931C404.693 872.667 400.417 872.881 417.995 866.483C456.886 852.33 478.554 826.07 508.214 803.085C537.463 780.418 566.585 760.404 600.053 741.073C617.119 731.216 633.034 723.724 650.421 713.872C665.312 705.432 683.937 688.017 702.362 688.017H705.012C721.099 688.017 713.135 694.469 731.516 694.82C730.068 679.932 692.216 669.873 675.707 671.349L633.45 676.681V681.215H622.849C611.056 681.215 596.245 686.731 588.393 690.285C576.716 684.999 563.196 683.311 561.889 669.878C566.384 669.792 606.758 658.841 610.156 656.753C620.792 650.219 632.799 634.59 646.208 633.437L648.372 626.858L646.294 599.753L641.49 587.748L665.255 590.518C672.829 591.49 676.313 583.716 683.809 583.716H697.061C704.733 583.716 718.433 601.856 758.02 601.856C771.378 601.856 782.629 595.053 799.655 594.118L816.33 581.449C805.078 584.019 811.693 585.984 803.078 585.984H795.127C795.538 581.745 832.44 538.813 837.533 522.496C817.853 523.897 824.979 562.32 779.224 565.577C780.817 553.123 787.654 560.794 796.457 546.309C800.767 539.219 809.295 530.322 811.029 524.764C790.764 526.661 782.032 563.31 760.671 563.31C751.39 563.31 737.498 561.231 731.516 558.775V563.31H723.565V549.706C717.659 548.356 715.613 549.176 715.613 542.904L715.618 528.864L742.119 529.299C746.902 532.039 746.778 533.833 752.72 533.833L755.329 533.215L776.574 533.833H787.175V529.299H765.971C752.513 529.299 731.303 516.623 718.265 515.694L718.245 508.723L752.72 506.625C754.49 503.762 758.02 499.128 758.02 495.288C758.02 493.278 730.263 467.877 728.789 467.692L709.141 471.389L689.5 488.365L678.401 465.764L686.459 452.207H681.158V440.87L675.858 438.603C668.33 445.39 660.834 449.882 653.176 457.744C644.777 466.366 642.718 473.23 636.101 481.683V504.358C631.859 509.777 622.849 514.459 622.849 520.229C622.849 546.61 674.408 563.78 678.508 576.914H673.207V581.449C654.693 581.096 658.239 574.647 649.353 574.647C630.425 574.647 586.574 590.518 572.491 590.518C559.707 590.518 564.071 581.449 551.288 581.449C546.22 581.449 549.481 585.984 540.685 585.984C532.815 585.984 533.596 581.449 522.132 581.449H516.832C509.5 581.449 510.458 583.199 508.881 588.251L537.186 600.841L538.035 608.659C530.576 610.145 524.567 613.193 516.832 613.193C501.121 613.193 442.62 598.137 442.62 588.251C442.62 567.832 462.447 547.977 463.823 533.833C448.537 534.922 445.27 548.853 445.27 563.31L433.633 585.632L428.97 587.231C423.424 587.067 423.274 585.984 416.116 585.984C410.744 585.984 394.912 597.165 394.912 601.856C394.912 602.591 421.109 616.233 427.348 621.723C436.868 630.099 448.998 632.912 463.823 635.867V642.669L331.309 640.269L331.304 635.867H318.051C289.723 635.867 344.394 672.644 353.634 675.716C392.167 688.527 387.835 689.493 429.369 681.215L439.397 686.535C439.367 708.946 393.075 708.424 365.759 708.424L359.541 699.844L320.667 712.894C328.517 722.943 384.087 756.039 402.865 756.039H418.767C418.578 763.305 419.631 767.376 410.816 767.376H392.263C382.797 767.376 354.581 758.151 352.506 751.505H341.905C335.127 751.505 326.002 774.662 326.002 776.447C326.002 780.623 352.39 812.93 355.158 821.794H344.555C338.613 821.794 338.737 820 333.954 817.259L262.452 810.101C263.749 824.405 299.652 852.667 315.401 855.806C316.059 862.568 317.306 867.143 326.002 867.143H333.954V878.479L331.985 876.172L299.498 898.887H299.497ZM511.532 298.024C511.532 289.32 522.176 286.889 532.736 286.687V295.757L535.447 313.888L532.242 320.536C522.074 320.495 511.532 315.286 511.532 307.093V298.024V298.024ZM508.882 341.105C483.588 341.105 468.399 294.237 487.678 282.152C487.678 336.747 520.195 321.172 522.133 341.105H508.882ZM513.799 274.48C511.967 282.449 508.036 288.041 498.279 288.954L498.127 279.54L513.799 274.48V274.48ZM453.223 266.281C455.035 247.646 463.775 262.987 477.947 258.129C488.932 254.363 489.195 251.622 506.232 250.408C505.594 256.964 491.238 270.816 485.028 270.816C473.012 270.816 463.092 268.248 453.223 266.281ZM487.669 227.683C499.662 226.095 524.997 233.528 527.435 241.339C504.091 241.339 472.491 249.277 466.581 230.567L487.669 227.683ZM437.32 216.398C437.32 216.702 434.713 220.889 434.67 220.932C422.992 216.139 421.798 221.954 421.417 207.328H434.67C436.422 213.761 437.32 211.205 437.32 216.398ZM408.166 207.328H400.214C395.877 207.328 392.263 205.971 392.263 202.793C392.263 197.998 393.212 199.803 394.913 193.723C406.679 194.561 407.211 197.51 408.166 207.328V207.328ZM310.1 148.376C310.1 144.444 315.811 130.236 320.701 130.236C325.69 130.236 328.652 138.6 328.652 143.841V150.643L325.684 171.009L318.051 171.049C316.596 165.706 310.1 151.737 310.1 148.376V148.376ZM405.516 150.643C405.516 144.083 412.669 125.701 421.417 125.701H432.02C433.771 132.135 434.67 129.577 434.67 134.77C434.67 152.813 420.541 157.072 416.117 173.317C420.091 178.394 426.718 181.283 426.718 186.921V189.188C426.718 193.566 425.884 193.225 424.068 195.991C414.781 193.87 405.516 172.891 405.516 168.782V150.643V150.643ZM363.108 143.841C363.108 132.184 378.635 96.2251 392.263 96.2251H394.913C401.836 96.2251 410.816 108.996 410.816 114.364C410.816 114.771 401.54 123.827 400.133 139.236C399.132 150.214 394.913 153.748 394.913 166.515V184.654C383.931 183.626 363.108 167.03 363.108 157.445V143.841V143.841ZM426.718 98.4925V105.295C417.617 103.215 414.353 100.81 413.466 91.6904C421.96 91.8516 426.718 90.9519 426.718 98.4925V98.4925ZM447.921 39.5399L457.199 45.2083L445.271 46.342V57.6788L426.666 59.6685L434.581 44.0351L439.971 44.0746H447.921V39.5399V39.5399ZM400.185 34.7826L412.905 40.5561L413.466 46.342C395.501 48.0238 385.552 67.6011 375.671 77.4964C363.501 89.683 353.929 100.264 341.905 112.097L345.151 123.337L334.526 128.753L335.705 114.252C331.654 108.04 328.652 104.802 328.652 93.9578C328.652 57.814 343.969 51.273 368.486 37.8508L400.185 34.7826V34.7826ZM304.798 907.958L299.498 905.691V898.889L243.839 941.214L204.082 941.969C163.216 941.969 136.023 920.291 120.17 898.926L121.92 833.134C115.408 824.816 116.771 820.354 110.29 811.338C106.296 805.782 95.4154 796.611 95.4154 792.32V787.786C95.4154 782.498 102.487 776.449 108.667 776.449H113.969C123.175 776.449 118.012 780.984 127.22 780.984H153.724C167.675 780.984 154.662 771.089 173.603 770.779L182.879 776.449C183.704 773.789 185.53 770.268 185.53 769.646C185.53 761.107 183.785 765.359 182.319 755.026L169.627 760.576C164.844 757.837 164.968 756.041 159.025 756.041H148.424C146.431 762.428 140.946 765.111 132.521 765.111C131.129 765.111 93.9796 757.341 87.4646 756.041C88.0194 734.724 95.7841 748.152 87.4646 719.764C82.9805 704.465 86.1066 692.933 66.261 692.554C67.142 683.498 77.153 681.217 90.1149 681.217C109.159 681.217 103.063 694.822 116.619 694.822H119.269C133.405 694.822 145.773 672.581 145.773 656.275V647.206C145.773 640.351 142.655 640.936 135.171 640.404C132.008 652.02 136.576 674.415 124.57 674.415H121.92C113.643 674.415 105.544 660.811 95.4154 660.811H92.7652C81.7965 660.811 53.0083 672.892 53.0083 678.95C53.0083 686.045 59.9091 692.554 47.7077 692.554C38.8004 692.554 26.7536 686.664 19.8468 682.575L53.0083 647.206C76.6042 647.206 72.3185 636.993 90.1149 626.8C90.1149 607.241 92.2869 607.84 103.573 597.499C114.255 587.712 115.302 582.02 125.001 572.75C140.963 557.491 155.085 540.395 169.476 524.637C178.925 514.291 199.503 483.525 203.509 469.857C207.881 454.939 212.186 454.082 212.062 434.094C211.897 407.532 205.564 406.861 225.286 406.861C227.151 406.861 256.274 394.08 260.697 391.807C269.156 387.461 296.507 386.454 310.1 386.454H323.352C339.993 386.454 342.27 393.045 349.856 384.187C333.259 383.006 322.911 377.385 299.498 377.385H286.246C258.828 377.385 254.14 389.312 230.586 390.989C237.504 378.657 252.389 345.641 270.343 345.641H296.847V341.106L273.365 340.966L267.537 326.842L307.384 318.954L273.354 316.195L275.644 279.886C277.082 267.703 279.369 252.9 283.494 243.521C290.596 227.368 300.8 227.992 302.148 214.131C317.063 215.193 322.712 224.302 334.438 227.322C348.174 230.859 357.433 233.765 355.621 246.882L349.81 257.458L381.662 261.747C372.18 246.417 363.609 258.275 363.108 239.072C391.326 239.072 421.585 273.084 458.524 273.084V277.619H466.475C470.813 277.619 474.426 278.976 474.426 282.153C474.426 293.434 455.874 291.497 455.874 298.025C455.874 306.818 461.97 302.507 467.044 308.875C468.632 310.868 471.275 319.832 473.267 323.958C478.111 333.994 484.727 343.331 496.638 347.051C518.452 353.866 558.746 339.678 559.24 320.7C546.409 323.631 550.38 329.769 540.687 329.769H532.736C533.848 318.33 539.993 318.432 553.939 318.432C565.274 303.95 588.394 310.24 588.394 295.758C588.394 288.788 580.63 286.688 572.493 286.688L550.651 286.579L553.811 273.062L556.001 274.847L566.602 265.777L564.351 264.437L556.925 262.447L527.402 270.799L532.383 261.15L506.232 270.817C514.841 243.235 596.069 231.425 604.297 205.062C601.064 203.508 601.462 202.794 596.345 202.794C587.34 202.794 555.552 227.736 543.337 227.736H527.435C520.276 227.736 520.127 226.653 514.182 225.468L514.707 219.783L545.987 209.597L545.437 203.94L508.882 216.399C504.757 214.036 500.931 213.393 500.931 207.329V173.318C500.931 168.234 503.028 168.341 506.232 164.248H500.931V152.911L489.799 176.285L486.969 175.702L485.028 164.248L474.426 146.109C474.426 164.602 474.306 172.176 478.558 187.922C482.867 203.883 490.329 198.36 490.329 223.201H461.174C455.067 223.201 453.223 221.623 453.223 216.399V205.062C453.223 193.459 461.857 204.129 471.775 191.457C455.288 192.631 437.32 187.861 437.32 168.783C437.32 153.299 450.572 133.033 450.572 132.504C450.572 123.23 445.271 122.764 444.863 105.46L439.971 93.9588C432.265 93.4096 416.117 82.7811 416.117 80.3546C416.117 73.4995 419.235 74.085 425.871 74.241L442.621 89.424V64.482H455.874C454.9 74.4823 450.572 74.4033 450.572 80.3546C450.572 86.4183 454.399 87.0599 457.935 89.4989L461.174 109.83C476.649 106.295 468.481 89.9909 466.813 83.5403L479.727 78.0862C473.821 76.7372 471.775 77.5568 471.775 71.2841C471.775 65.1643 478.832 62.2146 485.028 62.2146C513.287 62.2146 506.232 77.5339 506.232 93.9588H511.532V71.2841C511.532 64.4841 522.627 63.2256 530.085 57.6799H514.182C506.401 47.7388 507.812 38.3948 492.979 35.0062C493.958 24.9404 497.405 24.4858 508.882 23.6693V16.8662H495.629C481.272 16.8662 469.587 20.4992 466.475 30.4714C455.449 30.6815 435.325 36.2636 432.02 44.0756C419.548 36.9313 412.177 28.2041 389.613 28.2041H384.312C369.34 28.2041 369.814 32.7388 352.506 32.7388C340.979 51.376 323.664 53.5351 323.251 84.8019C322.652 129.933 302.148 125.272 302.148 146.109V171.05C302.148 178.928 307.45 174.511 307.45 182.387V193.724C291.969 192.623 292.943 184.655 286.246 184.655C276.264 184.655 281.234 186.147 270.604 186.803L249.95 152.814L243.839 116.632H238.539V132.504C238.539 170.015 268.224 197.908 286.246 220.933C282.097 227.641 263.996 260.737 262.843 266.668C258.412 289.443 259.438 303.355 254.243 325.065C251.874 334.969 248.759 339.025 242.322 346.611C231.492 359.377 235.773 353.717 228.026 368.391C226.96 370.409 200.392 403.686 197.77 409.539L188.181 434.07C190.932 437.586 196.131 442.325 196.131 447.674C196.131 468.11 163.836 495.835 150.332 508.26C131.263 525.806 120.203 551.663 103.935 570.6C92.6374 583.751 88.6644 582.399 78.337 598.584C73.0729 606.835 57.2952 619.296 50.3215 626.768C45.7121 631.707 0 684.849 0 685.752C0 693.122 2.29619 687.464 5.30059 697.089H13.2515C18.3878 697.089 25.5684 706.158 55.6586 706.158C67.6774 713.044 76.8622 708.218 76.8622 724.298V737.902C76.8622 745.893 66.261 747.034 66.261 751.507C66.261 763.223 73.2822 765.626 82.1628 769.646C82.1628 788.425 79.1255 799.571 90.7135 809.947C96.0238 814.703 111.317 833.266 111.317 839.936V871.679C111.317 906.068 103.32 911.171 130.021 932.771C138.415 939.561 186.33 957.841 198.782 957.841L204.188 958.406L225.695 955.187L235.888 962.376C248.747 959.813 256.84 955.574 272.994 955.574H291.547C318.193 955.574 335.777 956.345 360.422 957.866C377.308 958.91 411.725 974.061 424.068 969.178C410.939 952.405 362.051 939.701 328.652 939.701L296.796 939.389L262.392 941.969C266.846 925.613 291.722 917.682 304.798 907.958V907.958ZM919.696 892.087C919.696 886.779 924.093 883.016 930.297 883.016H932.947C942.428 883.016 945.982 899.609 946.2 907.958C937.858 906.295 919.696 900.325 919.696 892.087ZM1028.36 896.621L996.558 901.156C995.47 899.766 985.957 887.879 985.957 887.551C985.957 883.611 1012.55 854.289 1023.06 853.54C1022.19 862.547 1020.41 859.002 1020.41 864.877C1020.41 873.428 1024.32 880.124 1028.36 885.284V896.621ZM970.054 844.471L982.953 843.191L1007.16 849.006C1006.81 862.41 991.693 875.903 975.817 876.077L969.243 861.792L983.305 853.54V849.006H970.054V844.471ZM951.5 833.134C952.885 838.219 954.151 838.347 954.151 844.471C954.151 844.558 942.024 861.172 940.899 862.61C934.13 858.732 922.346 849.445 922.346 839.936C922.346 834.937 936.511 833.134 943.549 833.134H951.5V833.134ZM889.429 819.41C899.072 820.136 906.443 823.587 906.443 830.866V842.203C906.443 846.44 886.747 873.832 881.17 876.063L889.429 819.41V819.41ZM996.448 821.218L999.846 835.292C985.258 834.408 979.066 834.975 977.952 823.786L996.448 821.218V821.218ZM940.899 810.459C946.455 810.459 948.332 816.464 948.85 821.796H935.597C935.597 816.703 934.926 810.459 940.899 810.459ZM864.037 851.273C864.037 858.163 859.439 858.971 853.435 860.342C850.438 850.739 846.636 840.353 834.881 837.669L846.294 819.998L833.964 821.306L840.215 812.744L861.39 813.011C862.075 819.819 864.037 820.782 864.037 828.598V851.273ZM970.054 810.459C970.054 805 979.574 796.855 985.957 796.855C989.67 796.855 991.257 799.946 991.257 803.657V812.727L970.105 817.425L970.054 810.459ZM914.395 799.123C914.395 790.723 919.122 779.929 922.346 774.181L925.347 773.302L936.489 801.129L924.254 819.172C918.992 818.158 914.395 817.349 914.395 810.459V799.123V799.123ZM1015.11 792.32C1015.11 778.429 1021.46 779.691 1030.54 776.045C1041.4 771.686 1033.4 762.844 1046.92 762.844C1052.79 762.844 1062.82 777.767 1062.82 785.518V794.588L1038.85 788.032L1055.52 803.038L1048.38 826.09C1026.18 826.331 1015.11 821.243 1015.11 801.39V792.32V792.32ZM1001.86 769.646C1001.86 764.338 1006.26 760.576 1012.46 760.576H1015.11C1021.22 760.576 1023.06 762.154 1023.06 767.378C1023.06 770.538 1010.95 781.079 1007.16 783.251C1003.96 779.158 1001.86 779.264 1001.86 774.181V769.646V769.646ZM971.582 795.895C963.163 801.163 966.559 807.12 951.5 808.192C949.726 801.677 948.89 804.448 948.85 799.123L950.695 753.765L935.712 756.552C934.909 748.949 932.947 747.987 932.947 740.17C932.947 732.353 934.909 731.391 935.787 724.721L943.605 722.155C952.875 726.253 991.257 761.15 991.257 767.378V780.984C991.257 792.358 977.715 792.056 971.582 795.895V795.895ZM781.875 731.1C789.791 732.908 796.996 741.2 797.778 749.239C784.744 748.312 782.182 742.88 781.875 731.1ZM821.864 731.138L832.131 733.645C829.867 742.061 829.498 745.988 818.411 746.88L821.864 731.138ZM816.243 726.909C815.383 736.314 816.706 730.651 811.03 737.902C803.775 733.746 801.34 733.668 800.429 724.298L816.243 726.909ZM818.982 710.693C818.982 702.227 821.915 690.287 829.583 690.287C833.297 690.287 834.884 693.378 834.884 697.089V712.96L818.982 710.693V710.693ZM877.291 638.136C904.3 638.136 938.251 635.37 938.251 663.078V674.415C938.251 691.25 902.793 718.207 901.145 731.1L926.868 720.709C919.797 736.03 926.144 750.408 914.954 765.587C901.073 784.418 908.139 795.721 901.145 808.192C883.705 798.202 886.237 791.24 878.636 773.031C873.81 761.469 858.738 748.288 858.738 737.902V735.635C858.738 725.853 879.444 718.47 879.941 699.356C867.978 706.855 864.37 723.143 848.136 724.298V706.158C848.136 661.645 853.418 668.636 877.291 638.136V638.136ZM779.225 660.811C779.225 642.551 796.742 640.047 800.429 631.334L819.247 637.675L832.233 638.136L823.617 632.112L829.968 624.805C825.429 621.928 824.283 624.115 824.283 617.73C824.283 613.834 836.906 606.393 842.836 606.393C844.594 606.393 869.34 620.839 869.34 629.067C869.34 630.443 855.261 647.143 853.437 649.473L837.662 646.661C836.004 662.935 815.442 701.624 800.429 701.624H784.526C781.521 691.999 779.225 697.657 779.225 690.287V660.811ZM1028.36 896.617L1057.09 873.574L1054.87 871.675C1043.01 875.346 1052.84 878.477 1041.62 878.477L1026.56 877.414L1041.71 858.05L1038.96 846.734C1054.09 843.279 1042 829.143 1070.77 828.594V835.397C1070.77 851.893 1056.34 849.694 1054.87 864.873C1083.16 864.334 1061.83 840.876 1089.32 835.397C1088.82 854.792 1078.72 846.912 1078.72 853.536C1078.72 859.921 1079.87 857.734 1084.02 860.338C1091.82 835.34 1113.18 842.033 1113.18 801.386C1113.18 794.937 1115.51 791.43 1118.48 787.781L1115.83 783.247L1112.78 787.668L1105.22 787.781L1102.24 774.198L1097.27 778.712C1069.07 776.704 1080.19 751.645 1056.03 745.953C1032.06 740.306 1012.35 755.266 993.908 744.701L983.408 747.246C974.409 741.871 957.551 715.224 948.85 715.224H940.899C932.284 715.224 938.897 717.189 927.646 719.759C928.532 710.656 948.85 686.998 948.85 667.609C948.85 645.69 938.175 628.425 956.801 619.993L951.5 617.726H943.549L933.861 609.914C936.031 616.42 939.825 626.795 927.646 626.795H909.093C899.363 626.795 896.282 623.282 890.541 619.993L872.095 622.748C872.712 594.471 901.208 594.38 921.931 581.092C943.254 567.42 959.173 563.574 975.354 542.902L972.704 538.366C965.321 543.856 950.083 551.733 945.784 558.417C941.392 565.242 925.47 572.81 916.758 576.668C879.594 593.124 888.488 592.784 840.183 592.784C839.584 592.784 808.69 605.22 805.991 606.615C799.121 610.162 787.819 622.379 781.444 628.694C773.779 636.287 759.538 640.893 754.951 649.112C751.501 655.294 742.117 674.885 742.117 683.48V690.283C742.117 719.249 758.161 762.839 789.824 762.839H818.98C827.188 762.839 833.076 752.755 834.881 746.968C849.409 747.245 856.085 758.063 856.085 769.642V783.247L845.389 783.267L848.674 794.467L845.621 792.541L824.969 811.128L826.795 813.185L813.09 810.531L816.329 830.861C797.965 830.861 780.661 834.217 779.223 849.002H792.475C810.7 849.002 832.231 878.583 832.231 883.012C832.231 887.599 825.991 896.617 821.63 896.617C812.933 896.617 811.686 892.043 811.027 885.279H803.077V898.885C803.077 912.182 814.859 901.558 818.302 915.97L797.776 907.954C798.485 915.252 802.519 921.558 811.027 921.558L826.126 920.917L853.083 896.183L850.873 894.693L866.687 892.082C867.563 901.089 869.338 897.544 869.338 903.419C869.338 914.356 858.735 910.622 858.735 921.558C858.735 929.119 870.228 921.408 871.988 935.163C882.079 928.838 879.939 911.463 879.939 896.617C882.88 892.86 892.948 878.477 898.492 878.477C912.32 878.477 901.891 904.938 932.544 915.102C936.548 916.43 992.837 930.628 993.908 930.628H1017.76C1048.81 930.628 1064.63 890.166 1076.07 871.675C1058.64 877.074 1058.23 912.489 1028.36 912.489L1018.93 911.864L1028.36 896.617V896.617ZM683.812 808.188C683.812 796.991 693.065 790.9 705.016 790.049C704.8 798.324 698.846 819.525 689.113 819.525C685.399 819.525 683.812 816.434 683.812 812.723V808.188V808.188ZM662.609 796.851C662.609 776.392 692.84 760.572 712.967 760.572C718.573 760.572 716.461 761.384 723.569 762.839C721.523 783.868 675.433 764.894 670.561 814.99C664.654 813.641 662.609 814.461 662.609 808.188V796.851V796.851ZM731.852 767.549L742.122 767.374C739.355 758.51 728.286 756.037 715.617 756.037H697.065C686.338 756.037 652.007 771.672 652.007 780.979V803.653C652.007 825.651 662.609 842.089 662.609 862.606C662.609 866.568 652.007 873.358 652.007 880.745C652.007 917.977 707.744 928.318 719.89 965.518C725.763 983.501 732.76 1006.96 737.131 1023.33C741.28 1038.87 739.553 1073.48 760.674 1073.48C761.402 1073.48 765.517 1071.91 768.626 1071.21L775.216 1079L776.577 1034.93C776.577 1019.91 777.805 1004.68 780.678 990.82C785.322 968.42 790.292 982.778 816.334 982.778H821.635C846.359 982.778 871.993 959.531 871.993 937.43C864.957 944.355 860.67 960.104 850.789 960.104H842.838C841.899 969.762 838.977 973.709 826.935 973.709H818.984C807.572 973.709 784.528 971.348 784.528 962.372C784.528 949.577 804.792 959.149 813.683 948.768L797.967 937.226C791.837 938.615 791.687 939.697 784.528 939.697C773.718 939.697 763.325 926.358 763.325 917.024V901.152H750.073L744.075 912.169C734.73 910.488 718.268 897.45 718.268 887.547V880.745C728.772 880.745 742.122 880.284 742.122 871.675C742.122 852.314 720.051 856 718.268 837.665L728.296 842.984L732.099 833.259L723.569 833.13L725.63 831.366L715.028 822.297L712.967 824.059C712.967 797.81 723.988 797.403 734.17 785.514L731.99 783.121L713.323 793.379L731.852 767.549V767.549ZM331.302 490.753C331.302 495.264 315.43 497.633 310.099 499.823C307.8 492.46 295.544 483.95 310.099 483.95H320.7C325.819 483.95 331.302 487.993 331.302 490.753ZM285.413 466.275L286.245 463.544C312.888 463.544 352.55 462.573 357.807 479.415H339.253C328.563 479.415 323.683 478.936 320.263 474.047L285.413 466.275V466.275ZM275.643 477.148C275.643 509.156 288.895 496.953 288.895 511.16C288.895 512.708 265.632 530.048 262.391 533.833C265.624 535.387 265.225 536.101 270.342 536.101C282.007 536.101 310.033 513.876 319.643 507.987C344.048 493.032 346.815 495.288 381.66 495.288L383.665 493.763L371.09 481.6L397.562 488.486C395.105 463.219 346.754 474.826 344.554 452.207H302.147C296.205 452.207 296.329 450.413 291.516 447.895L259.741 445.405H249.139C249.815 471.381 260.593 468.527 275.643 477.148ZM474.427 146.112L485.029 164.251L493.474 151.588L495.63 152.914V143.845C495.63 138.62 497.475 137.043 503.582 137.043C507.921 137.043 511.533 138.4 511.533 141.578C511.533 148.536 507.88 151.327 500.932 152.914V164.251H506.233C511.693 161.123 513.113 157.449 519.484 157.449H532.737C540.81 157.449 542.432 158.479 548.64 159.717C566.339 149.577 578.181 137.639 580.445 114.368V107.566L575.144 109.833L572.494 118.903H561.891C558.69 107.147 552.101 93.9619 535.387 93.9619H532.737C521.495 93.9619 487.679 113.151 487.679 121.17V140.065L471.402 139.372L474.427 146.112V146.112ZM1192.7 522.506C1192.7 531.387 1182.99 551.879 1182.09 561.052H1176.79L1178.79 559.536L1166.19 549.715V554.25C1156.06 554.057 1138.96 546.719 1135.15 548.368C1134.29 548.741 1126.43 574.088 1126.43 574.656C1126.43 574.775 1137.77 592.795 1144.99 592.795C1161.87 592.795 1157.82 584.581 1171.49 581.458C1171.06 597.864 1153.11 642.678 1137.04 642.678C1127.05 642.678 1132.02 641.187 1120.81 640.499L1123.78 649.48H1137.04V644.946H1152.94C1163.55 644.946 1161.6 625.493 1172.73 614.258C1176.79 610.159 1192.24 588.36 1192.7 583.726H1182.09C1194.66 561.315 1198 524.618 1197.43 498.139L1190.05 490.763C1180.29 496.787 1192.7 510.216 1192.7 522.506V522.506ZM1147.64 726.569V746.975C1147.64 753.984 1157.57 762.412 1163.54 765.114V794.591C1169.98 785.904 1163.44 781.769 1176.79 778.719C1176.79 797.23 1182.17 790.459 1186.41 804.51C1191.33 820.849 1187.39 818.849 1187.39 835.405C1195.1 827.822 1195.35 810.987 1195.35 803.66C1195.35 792.797 1198.02 778.867 1208.6 776.452C1200.51 762.032 1216.05 754.755 1216.55 735.638H1211.25C1209.81 740.244 1197.63 771.916 1192.7 771.916C1182.32 771.916 1192.4 768.493 1176.16 767.273L1179.44 753.777C1176.49 755.469 1170.53 760.579 1168.84 760.579C1159.11 760.579 1155.59 746.711 1155.59 737.906V717.499C1155.59 706.843 1167.47 695.264 1168.84 681.22C1150.58 682.521 1147.64 709.878 1147.64 726.569V726.569ZM1248.35 620.003C1248.35 632.748 1236.27 639.718 1227.15 644.944C1223.92 643.39 1224.32 642.676 1219.2 642.676C1215.22 642.676 1201.87 660.204 1200.65 663.084C1207.47 661.724 1220.26 654.013 1221.85 654.013C1231.72 654.013 1251.23 667.618 1273 666.125L1237.75 651.746C1242.58 634.031 1258.96 624.575 1258.96 615.468C1258.96 610.244 1257.11 608.666 1251 608.666H1243.05C1246.06 618.291 1248.35 612.632 1248.35 620.003V620.003ZM326.008 318.443L341.911 325.245C384.997 325.245 393.884 339.911 410.822 341.116C407.895 331.735 386.388 322.996 374.34 320.177C361.956 317.278 333.961 307.257 326.008 307.105V318.443V318.443ZM906.456 236.815L922.509 236.769L926.89 245.688L933.402 228.595L956.814 220.944L938.244 220.81C926.038 222.156 910.222 216.534 909.107 205.072H895.855C886.718 205.072 885.592 203.395 877.302 202.805L917.808 224.421L906.456 236.815V236.815ZM1086.68 232.281H1094.63C1094.67 232.281 1108.07 228.232 1110.29 227.383C1121.56 223.08 1113.19 225.173 1113.19 214.142V207.34C1097.42 208.462 1087.06 217.808 1086.68 232.281ZM670.57 336.58C674.575 336.58 686.472 330.259 686.472 327.51C686.472 322.286 684.629 320.708 678.521 320.708H654.667C654.935 331.002 665.355 336.58 670.57 336.58V336.58ZM386.972 381.928L418.777 386.463C416.984 380.719 413.656 375.126 405.525 375.126H386.972V381.928ZM604.301 275.362H606.951C614.964 275.362 614.28 272.693 614.858 266.491L596.349 264.025C596.539 271.291 595.486 275.362 604.301 275.362V275.362ZM1155.27 515.619C1155.64 515.744 1160.53 517.975 1160.89 517.975C1169.59 517.975 1170.83 513.401 1171.49 506.638L1158.56 506.727L1155.27 515.619V515.619ZM575.23 459.367L575.143 468.092C585.194 467.377 589.943 465.365 590.957 456.412L575.23 459.367ZM657.306 350.19C657.306 354.832 662.766 354.359 667.907 354.725V345.655C662.766 346.021 657.306 345.548 657.306 350.19Z" fill="#23201D"/>
</svg>
